<?xml version="1.0" encoding="utf-8"?>
<!-- Generator: Adobe Illustrator 25.1.0, SVG Export Plug-In . SVG Version: 6.00 Build 0)  -->
<svg version="1.1" id="f921693e-33a8-40f4-b606-3710578972cc"
	 xmlns="http://www.w3.org/2000/svg" xmlns:xlink="http://www.w3.org/1999/xlink" x="0px" y="0px" viewBox="0 0 1560 1100"
	 style="enable-background:new 0 0 1560 1100;" xml:space="preserve">
<style type="text/css">
	.st0{fill:#3F3D56;}
	.st1{opacity:4.000000e-02;fill:#83D39E;enable-background:new    ;}
	.st2{opacity:0.7;}
	.st3{fill:url(#SVGID_1_);}
	.st4{fill:#3AD29F;}
	.st5{opacity:0.5;fill:#4D8AF0;enable-background:new    ;}
	.st6{opacity:0.5;fill:#F55F44;enable-background:new    ;}
	.st7{opacity:0.5;fill:#47E6B1;enable-background:new    ;}
	.st8{opacity:0.5;}
	.st9{fill:#47E6B1;}
	.st10{fill:#83D39E;}
	.st11{fill:#FFB9B9;}
	.st12{fill:#575A89;}
	.st13{opacity:0.1;enable-background:new    ;}
	.st14{fill:#2F2E41;}
	.st15{fill:none;}
	.st16{fill:#333333;}
	.st17{font-family:'MyriadPro-Regular';}
	.st18{font-size:240px;}
</style>
<path class="st0" d="M781.7,22.7L512,188.7c0,0,0,342.3,269.7,529c269.7-186.7,269.7-529,269.7-529L781.7,22.7z"/>
<path class="st1" d="M783.3,22.7l-4.6,2.8v688.9c1.5,1.1,3.1,2.2,4.6,3.2C1053,531,1053,188.7,1053,188.7L783.3,22.7z"/>
<g class="st2">
	
		<linearGradient id="SVGID_1_" gradientUnits="userSpaceOnUse" x1="695.2214" y1="412.603" x2="855.6994" y2="412.603" gradientTransform="matrix(1 0 0 -1 0 794)">
		<stop  offset="0" style="stop-color:#808080;stop-opacity:0.25"/>
		<stop  offset="0.5351" style="stop-color:#808080;stop-opacity:0.12"/>
		<stop  offset="1" style="stop-color:#808080;stop-opacity:0.1"/>
	</linearGradient>
	<polygon class="st3" points="716.4,359.1 767.2,405.7 830.3,314.8 855.7,335.9 767.2,448 695.2,367.5 	"/>
</g>
<polygon class="st4" points="728.4,361.9 769.6,399.7 828.1,313.8 848.7,330.9 769.6,434 711.2,368.7 "/>
<path class="st5" d="M515.6,60c-1.7-0.7-2.6-2.7-2-4.4c0-0.1,0.1-0.3,0.1-0.4l0,0c0.1-1-0.7-1.9-1.7-2c-0.6,0-1.2,0.2-1.6,0.7l0,0
	c-0.1,0.1-0.2,0.2-0.2,0.4c-0.7,1.7-2.7,2.6-4.4,2c-0.1,0-0.3-0.1-0.4-0.1l0,0c-1-0.1-1.9,0.7-2,1.7c0,0.6,0.2,1.2,0.7,1.6l0,0
	c0.1,0.1,0.2,0.2,0.4,0.2c1.7,0.7,2.6,2.7,2,4.4c0,0.1-0.1,0.3-0.1,0.4l0,0c-0.1,1,0.7,1.9,1.7,2c0.6,0,1.2-0.2,1.6-0.7l0,0
	c0.1-0.1,0.2-0.2,0.2-0.4c0.7-1.7,2.7-2.6,4.4-2c0.1,0,0.3,0.1,0.4,0.1l0,0c1,0.1,1.9-0.7,2-1.7c0-0.6-0.2-1.2-0.7-1.6l0,0
	C515.8,60.1,515.7,60,515.6,60z"/>
<path class="st5" d="M369.6,385c-1.7-0.7-2.6-2.7-2-4.4c0-0.1,0.1-0.3,0.1-0.4l0,0c0.1-1-0.7-1.9-1.7-2c-0.6,0-1.2,0.2-1.6,0.7l0,0
	c-0.1,0.1-0.2,0.2-0.2,0.4c-0.7,1.7-2.7,2.6-4.4,2c-0.1,0-0.3-0.1-0.4-0.1l0,0c-1-0.1-1.9,0.7-2,1.7c0,0.6,0.2,1.2,0.7,1.6l0,0
	c0.1,0.1,0.2,0.2,0.4,0.2c1.7,0.7,2.6,2.7,2,4.4c0,0.1-0.1,0.3-0.1,0.4l0,0c-0.1,1,0.7,1.9,1.7,2c0.6,0,1.2-0.2,1.6-0.7l0,0
	c0.1-0.1,0.2-0.2,0.2-0.4c0.7-1.7,2.7-2.6,4.4-2c0.1,0,0.3,0.1,0.4,0.1l0,0c1,0.1,1.9-0.7,2-1.7c0-0.6-0.2-1.2-0.7-1.6l0,0
	C369.8,385.1,369.7,385,369.6,385z"/>
<circle class="st6" cx="1098.7" cy="266" r="6"/>
<circle class="st6" cx="471.7" cy="695" r="6"/>
<circle class="st6" cx="1200.7" cy="497" r="6"/>
<path class="st5" d="M1054.6,89c-1.7-0.7-2.6-2.7-2-4.4c0-0.1,0.1-0.3,0.1-0.4l0,0c0.1-1-0.7-1.9-1.7-2c-0.6,0-1.2,0.2-1.6,0.7l0,0
	c-0.1,0.1-0.2,0.2-0.2,0.4c-0.7,1.7-2.7,2.6-4.4,2c-0.1,0-0.3-0.1-0.4-0.1l0,0c-1-0.1-1.9,0.7-2,1.7c0,0.6,0.2,1.2,0.7,1.6l0,0
	c0.1,0.1,0.2,0.2,0.4,0.2c1.7,0.7,2.6,2.7,2,4.4c0,0.1-0.1,0.3-0.1,0.4l0,0c-0.1,1,0.7,1.9,1.7,2c0.6,0,1.2-0.2,1.6-0.7l0,0
	c0.1-0.1,0.2-0.2,0.2-0.4c0.7-1.7,2.7-2.6,4.4-2c0.1,0,0.3,0.1,0.4,0.1l0,0c1,0.1,1.9-0.7,2-1.7c0-0.6-0.2-1.2-0.7-1.6l0,0
	C1054.8,89.1,1054.7,89,1054.6,89z"/>
<path class="st5" d="M1154.6,717c-1.7-0.7-2.6-2.7-2-4.4c0-0.1,0.1-0.3,0.1-0.4l0,0c0.1-1-0.7-1.9-1.7-2c-0.6,0-1.2,0.2-1.6,0.7l0,0
	c-0.1,0.1-0.2,0.2-0.2,0.4c-0.7,1.7-2.7,2.6-4.4,2c-0.1,0-0.3-0.1-0.4-0.1l0,0c-1-0.1-1.9,0.7-2,1.7c0,0.6,0.2,1.2,0.7,1.6l0,0
	c0.1,0.1,0.2,0.2,0.4,0.2c1.7,0.7,2.6,2.7,2,4.4c0,0.1-0.1,0.3-0.1,0.4l0,0c-0.1,1,0.7,1.9,1.7,2c0.6,0,1.2-0.2,1.6-0.7l0,0
	c0.1-0.1,0.2-0.2,0.2-0.4c0.7-1.7,2.7-2.6,4.4-2c0.1,0,0.3,0.1,0.4,0.1l0,0c1,0.1,1.9-0.7,2-1.7c0-0.6-0.2-1.2-0.7-1.6l0,0
	C1154.8,717.1,1154.7,717,1154.6,717z"/>
<path class="st5" d="M362.6,195c-1.7-0.7-2.6-2.7-2-4.4c0-0.1,0.1-0.3,0.1-0.4l0,0c0.1-1-0.7-1.9-1.7-2c-0.6,0-1.2,0.2-1.6,0.7l0,0
	c-0.1,0.1-0.2,0.2-0.2,0.4c-0.7,1.7-2.7,2.6-4.4,2c-0.1,0-0.3-0.1-0.4-0.1l0,0c-1-0.1-1.9,0.7-2,1.7c0,0.6,0.2,1.2,0.7,1.6l0,0
	c0.1,0.1,0.2,0.2,0.4,0.2c1.7,0.7,2.6,2.7,2,4.4c0,0.1-0.1,0.3-0.1,0.4l0,0c-0.1,1,0.7,1.9,1.7,2c0.6,0,1.2-0.2,1.6-0.7l0,0
	c0.1-0.1,0.2-0.2,0.2-0.4c0.7-1.7,2.7-2.6,4.4-2c0.1,0,0.3,0.1,0.4,0.1l0,0c1,0.1,1.9-0.7,2-1.7c0-0.6-0.2-1.2-0.7-1.6l0,0
	C362.8,195.1,362.7,195,362.6,195z"/>
<circle class="st7" cx="429.7" cy="296" r="6"/>
<circle class="st7" cx="1203.7" cy="344" r="6"/>
<g class="st8">
	<rect x="933.7" y="12" class="st9" width="3" height="17"/>
	<rect x="926.7" y="19" class="st9" width="17" height="3"/>
</g>
<g class="st8">
	<rect x="944.7" y="678" class="st9" width="3" height="17"/>
	<rect x="937.7" y="685" class="st9" width="17" height="3"/>
</g>
<g class="st8">
	<rect x="376.7" y="714" class="st9" width="3" height="17"/>
	<rect x="369.7" y="721" class="st9" width="17" height="3"/>
</g>
<g class="st8">
	<rect x="1059.7" y="408" class="st9" width="3" height="17"/>
	<rect x="1052.7" y="415" class="st9" width="17" height="3"/>
</g>
<polygon class="st7" points="1145.9,135 1152.3,140.9 1161.5,127.5 1164.7,130.2 1152.3,146.3 1143.2,136.1 "/>
<rect x="940.3" y="251.7" transform="matrix(0.9992 -3.874900e-02 3.874900e-02 0.9992 -9.5923 37.066)" class="st10" width="22.2" height="28.6"/>
<path class="st11" d="M861.7,351.4c0,0-30.8-14.7-30.3-2c0.5,12.7,31,21.1,31,21.1L861.7,351.4z"/>
<path class="st10" d="M878.6,458.8c0,0-14.5,35.5-19.9,61.2s-13.5,60.9-3,86s40.4,98.6,40.7,106.5s-2.6,16,3.8,15.8
	s40.9-11.1,42.3-16s-11.8-17-11.8-17l-32.6-102.1l34-66.5l24.5,99.2l4.8,123.8c0,0,23.6-7.3,27-1c0,0,10.6-14.7,11.9-21.1
	s-5-128.6-5-128.6s21.6-139.2,4.2-138.5S913.6,419.3,878.6,458.8z"/>
<path class="st12" d="M899.9,721.9c0,0-16.1,35.6-17.6,37.3s-12,18-4.1,17.6s26.7-9,40.5-22.2s32-36.2,30.3-37.7s-12.9-5.9-12.9-5.9
	L899.9,721.9z"/>
<path class="st12" d="M964.3,741.7c0,0-1,15.9-3.9,22.4s-2.6,16,5.4,15.7s28.5-4.3,28.5-4.3s1.2-9.6-0.4-11.1s-8.7-18.7-5.7-23.6
	S964.3,741.7,964.3,741.7z"/>
<path class="st11" d="M976,224.5c0,0,16.9,26.4,23.5,32.5c6.6,6.1-12,19.5-12,19.5l-33.2,4.5c0,0,0.4-30.2-1.3-33.3
	S976,224.5,976,224.5z"/>
<path class="st10" d="M947.2,259c0,0,6.8,12.5,13.2,12.2c6.4-0.2,39.2-14.2,40.6-19.1c1.4-4.8,10.9,34.6,10.9,34.6l-80.4,141.4
	l-19.6-13.5l9.5-83l7.8-44.8L947.2,259z"/>
<path class="st12" d="M1003.9,385.6c-3.2,6.7-5.2,13.7-4.9,20.9c0,0.3,0,0.6,0.1,1c0.8,14.7,6.2,31.7,8.1,44
	c1.4,8.9,1,15.3-4.2,16.9c-12.6,3.7,1.8,6.3-46.8,22.5s-57.2,2.2-57.3-1s6.9-27.3,5.2-28.8s-23.1,20-29.5,17s-0.7-19.1-0.7-19.1
	s14.6-34,14.3-41.9s22.1-45.4,22.1-45.4l15.2-99.2c0,0,5.9-12.9,13.7-14.8c7.9-1.9,14.4,2.6,14.4,2.6l-13.2,29.1l-13.9,51.4l2.3,19
	c0,0,16.2-34,26.8-47.1s33.3-44.2,33.3-44.2s5.3-17.8,1.3-23.2c-4-5.3,16.6-6.1,25.4,15.8c4.7,11.6,12.2,28.9,17,45.1
	c4.2,14.3,6.2,27.6,2,35.3C1028.2,353.1,1012.1,368.5,1003.9,385.6z"/>
<path class="st13" d="M1034.6,341.5c-6.4,11.7-22.5,27-30.7,44.1c-2.1-7.7-4.8-15.7-4.8-15.7s-10-53.7,19.6-67.5
	c4.9-0.5,9.8,0.9,13.8,3.9C1036.8,320.5,1038.8,333.8,1034.6,341.5z"/>
<path class="st12" d="M916.8,338.1l-25.2,7.3l-34.9,1.4l-3.6,30.3l57.4,4.1C910.6,381.3,924.9,341,916.8,338.1z"/>
<path class="st11" d="M957.9,440.1c0,0-33.7,5.6-26,15.7c7.7,10.1,37.5-0.5,37.5-0.5L957.9,440.1z"/>
<path class="st13" d="M999,407.4c0.8,14.7,6.2,31.7,8.1,44c-10.7,10.1-20.9,19.1-24.8,19.2c-7.9,0.3-20.7-0.8-25.4,1
	s-7.5-28.3-7.5-28.3s2.8-9.6,15.3-14.9C973.3,424.9,989.5,415.2,999,407.4z"/>
<path class="st12" d="M1018.4,292.8c0,0,26.9-4.2,25.4,40.4c-1.5,44.6,2.8,73-8,81.4c-10.8,8.4-45.9,46.3-53.8,46.6
	s-20.7-0.8-25.4,1s-7.5-28.3-7.5-28.3s2.8-9.6,15.3-14.9s42-23.9,41.8-30.2s-7.5-28.3-7.5-28.3S988.8,306.7,1018.4,292.8z"/>
<circle class="st11" cx="952.3" cy="228.6" r="35"/>
<path class="st14" d="M928.8,178.5c-0.8,0.7-1.9,1.2-2.9,1.5c-1.1,0.2-2.2-0.5-2.4-1.7c-0.8,1.7-1.7,3.4-3.3,4.3s-4.2,0.1-4.4-1.7
	c-0.2,1.4-0.9,2.7-1.8,3.7c-1,1-2.8,1.2-3.7,0.1c0.7,3.9,0.3,7.9,0.5,11.9s1.3,8.2,4.3,10.8c4.4,3.8,10.9,2.9,16.7,2.1
	c0.9-0.2,1.8-0.1,2.6,0.1c2.2,0.9,2.1,3.9,2.1,6.3c0.4,8.5,6.8,15.5,15.2,16.5c2.3,0.4,4.6-0.2,6.5-1.6c1.6-1.4,2.5-3.6,4.3-4.7
	c3-1.7,6.7,0.8,9,3.5s4.4,6,7.9,6.5c4.6,0.6,8-4,9.7-8.3c4.7-12.1,4.4-25.6-1-37.5C978.5,169.6,946,166.3,928.8,178.5z"/>
<rect x="-4.5" y="743.9" class="st15" width="1560" height="415.1"/>
<text transform="matrix(1 0 0 1 62.1934 1036.667)" class="st16 st17 st18">security.enz.lu</text>
<rect x="1512.9" y="1048" class="st15" width="0" height="4.9"/>
<rect x="2760" y="533.6" class="st15" width="0" height="2.4"/>
</svg>
